# xmcd
#
# Track frame offsets:
# 150
# 20926
# 32903
# 47978
# 66773
# 83614
# 110367
# 126254
# 144241
# 166095
# 175500
#
# Disc length: 2528 seconds
#
#
# Revision: 0
# Processed by: cddbd v1.5.2PL0 Copyright (c) Steve Scherf et al.
# Submitted via: FreeRIP 2.951 
#
DISCID=8d09de0b
DTITLE=Dixie Chicks (Top Of The World Tour Disc 1) - Top Of The World Tour Disc 1
DYEAR=1900
DGENRE=Country
TTITLE0=Goodbye Earl
TTITLE1=Somedays You Gotta Dance
TTITLE2=There's Your Trouble
TTITLE3=Long Time Gone
TTITLE4=Tortured Tangled Hearts
TTITLE5=Travelin' Soldier
TTITLE6=Am I The Only One (Who Ever Felt This Way)
TTITLE7=Hello Mr Heartache
TTITLE8=Cold Day In July
TTITLE9=White Trash Wedding
TTITLE10=Lil' Jack Slade
EXTD=
EXTT0=
EXTT1=
EXTT2=
EXTT3=
EXTT4=
EXTT5=
EXTT6=
EXTT7=
EXTT8=
EXTT9=
EXTT10=
PLAYORDER=
